<svg width="57" height="21" viewBox="0 0 57 21" fill="none" xmlns="http://www.w3.org/2000/svg">
<path d="M4.07063 19.0088C4.06875 19.5506 3.84 20.0381 3.47438 20.3831H3.4725C3.0975 20.7356 2.59125 20.9512 2.03438 20.9512C1.4775 20.9512 0.969375 20.7338 0.5925 20.3813L0.594375 20.3831C0.22875 20.0381 0 19.5506 0 19.0106C0 18.4706 0.22875 17.9812 0.59625 17.6381C0.97125 17.2856 1.47937 17.07 2.03625 17.07C2.59312 17.07 3.09938 17.2856 3.47625 17.64L3.47438 17.6381C3.84 17.9831 4.06875 18.4706 4.07063 19.0125V19.0088ZM24.4631 20.6325H20.8125L11.2012 5.4675C10.98 5.12625 10.7756 4.7325 10.6125 4.31812L10.5956 4.27313H10.5112C10.5881 4.9575 10.6313 5.74875 10.6313 6.55125C10.6313 6.74625 10.6294 6.94125 10.6238 7.13625V7.10813V20.6325H7.39687V0.00187397H11.2837L20.5744 14.8106C20.9663 15.4219 21.2194 15.8456 21.3319 16.0762H21.3881C21.2944 15.375 21.2419 14.565 21.2419 13.7419C21.2419 13.5863 21.2438 13.4325 21.2475 13.2769V13.2994V0H24.4631V20.6325ZM40.1794 20.6325H28.8825V0.00187397H39.7313V2.90812H32.2219V8.7525H39.1406V11.6437H32.2219V17.745H40.1794V20.6325ZM56.235 2.90812H50.4525V20.6344H47.1131V2.90812H41.3438V0.00187397H56.2331L56.235 2.90812Z" fill="black"/>
</svg>
