<svg width="30" height="45" viewBox="0 0 30 45" fill="none" xmlns="http://www.w3.org/2000/svg">
<path fill-rule="evenodd" clip-rule="evenodd" d="M15 22.5C15 18.3579 18.3579 15 22.5 15C26.6421 15 30 18.3579 30 22.5C30 26.6421 26.6421 30 22.5 30C18.3579 30 15 26.6421 15 22.5Z" fill="#1ABCFE"/>
<path fill-rule="evenodd" clip-rule="evenodd" d="M0 37.5C0 33.3579 3.35786 30 7.5 30H15V37.5C15 41.6421 11.6421 45 7.5 45C3.35786 45 0 41.6421 0 37.5Z" fill="#0ACF83"/>
<path fill-rule="evenodd" clip-rule="evenodd" d="M15 0V15H22.5C26.6421 15 30 11.6421 30 7.5C30 3.35786 26.6421 0 22.5 0H15Z" fill="#FF7262"/>
<path fill-rule="evenodd" clip-rule="evenodd" d="M0 7.5C0 11.6421 3.35786 15 7.5 15H15V0H7.5C3.35786 0 0 3.35786 0 7.5Z" fill="#F24E1E"/>
<path fill-rule="evenodd" clip-rule="evenodd" d="M0 22.5C0 26.6421 3.35786 30 7.5 30H15V15H7.5C3.35786 15 0 18.3579 0 22.5Z" fill="#A259FF"/>
</svg>
