<svg width="53" height="53" viewBox="0 0 53 53" fill="none" xmlns="http://www.w3.org/2000/svg">
<path d="M52.5 0H0V52.5H52.5V0Z" fill="#FFCA28"/>
<path d="M31.875 43.6649L35.7403 41.1071C36.0433 42.0588 37.9616 44.3191 40.3847 44.3191C42.8077 44.3191 43.9327 42.9957 43.9327 42.1182C43.9327 39.7272 41.4585 38.8842 40.2701 38.4794C40.0762 38.4134 39.9169 38.3591 39.8078 38.3116C39.7517 38.2872 39.6671 38.2548 39.5586 38.2134C38.2369 37.7084 33.3606 35.8454 33.3606 30.4451C33.3606 24.497 39.1009 23.813 40.3991 23.813C41.2483 23.813 45.3317 23.917 47.3653 27.7387L43.6153 30.356C42.7933 28.6904 41.4274 28.1403 40.5866 28.1403C38.5097 28.1403 38.0769 29.6628 38.0769 30.356C38.0769 32.3007 40.3335 33.1724 42.2387 33.9084C42.7372 34.1009 43.2116 34.2841 43.6153 34.475C45.6922 35.4564 48.75 37.0625 48.75 42.1182C48.75 44.6506 46.626 48.7505 41.2789 48.7505C34.0961 48.7505 32.1923 44.4382 31.875 43.6649Z" fill="#3E3E3E"/>
<path d="M13.125 44.1727L17.1538 41.6163C17.4694 42.5675 18.6962 44.3214 20.4759 44.3214C22.2559 44.3214 23.1669 42.4932 23.1669 41.6163V24.3755H28.1216V41.6163C28.2019 43.9944 26.883 48.7505 21.0623 48.7505C15.7106 48.7505 13.4858 45.5699 13.125 44.1727Z" fill="#3E3E3E"/>
</svg>
